<svg version="1.1" id="svg693" xml:space="preserve" width="300" height="300" viewBox="0 0 32 32" xmlns="http://www.w3.org/2000/svg" xmlns:svg="http://www.w3.org/2000/svg" xmlns:xlink="http://www.w3.org/1999/xlink" xmlns:svgjs="http://svgjs.dev/svgjs"><g width="100%" height="100%" transform="matrix(1,0,0,1,0,0)"><defs id="defs697"><clipPath clipPathUnits="userSpaceOnUse" id="clipPath707"><path d="M 0,24 H 24 V 0 H 0 Z" id="path705" fill="#ffffff" fill-opacity="1" data-original-color="#000000ff" stroke="none" stroke-opacity="1"/></clipPath></defs><g id="g699" transform="matrix(1.3333333,0,0,-1.3333333,0,32)"><g id="g701"><g id="g703" clip-path="url(#clipPath707)"><g id="g709" transform="translate(14.1309,5)"><path d="m 0,0 v 0 h -2.131 -2.132 c -0.289,0 -0.558,0.144 -0.72,0.383 -0.162,0.239 -0.194,0.543 -0.086,0.81 0.367,0.909 1.073,1.782 2.099,2.593 l 0.301,0.237 c 0.316,0.251 0.764,0.25 1.08,-0.002 L -1.295,3.787 C -0.268,2.971 0.438,2.098 0.805,1.194 0.913,0.926 0.882,0.622 0.72,0.383 0.559,0.144 0.289,0 0,0" style="fill-rule: nonzero;" id="path711" fill="#ffffff" fill-opacity="1" data-original-color="#000000ff" stroke="none" stroke-opacity="1"/></g><g id="g713" transform="translate(14.7402,12)"><path d="M 0,0 C 1.913,-1.521 4.248,-3.957 4.741,-7.252 4.998,-8.965 3.637,-10.5 1.904,-10.5 l -9.263,10e-4 c -1.734,0 -3.095,1.536 -2.837,3.251 0.496,3.302 2.824,5.731 4.741,7.248 -1.917,1.517 -4.245,3.946 -4.741,7.248 -0.258,1.715 1.103,3.251 2.837,3.251 L 1.904,10.5 C 3.637,10.5 4.998,8.965 4.741,7.252 4.248,3.957 1.913,1.521 0,0 Z" style="stroke-linecap: round; stroke-linejoin: round; stroke-miterlimit: 10; stroke-dasharray: none;" id="path715" fill="none" fill-opacity="1" stroke="#ffffff" stroke-opacity="1" data-original-stroke-color="#000000ff" stroke-width="3" data-original-stroke-width="3"/></g></g></g></g></g></svg>